# MagicaVoxel @ Ephtracy

# group
g untitled

# material
mtllib untitled.mtl
usemtl palette

# normals
vn -1 0 0
vn 1 0 0
vn 0 0 1
vn 0 0 -1
vn 0 -1 0
vn 0 1 0

# texcoords
vt 0.939453 0.5
vt 0.943359 0.5
vt 0.970703 0.5
vt 0.974609 0.5

# verts
v -5 1 1
v -5 1 -1
v -5 3 1
v -5 3 -1
v -4 0 1
v -4 0 -1
v -4 1 2
v -4 1 1
v -4 1 -1
v -4 1 -2
v -4 2 2
v -4 2 1
v -4 3 2
v -4 3 1
v -4 3 -0
v -4 3 -1
v -4 3 -2
v -4 4 1
v -4 4 -0
v -4 4 -1
v -2 0 2
v -2 0 1
v -2 0 -1
v -2 0 -2
v -2 1 2
v -2 1 1
v -2 1 -1
v -2 1 -2
v -2 3 2
v -2 3 1
v -2 3 -1
v -2 3 -2
v -2 4 2
v -2 4 1
v -2 4 -1
v -2 4 -2
v 6 0 2
v 6 0 1
v 6 0 -1
v 6 0 -2
v 6 1 2
v 6 1 1
v 6 1 -1
v 6 1 -2
v 6 3 2
v 6 3 1
v 6 3 -1
v 6 3 -2
v 6 4 2
v 6 4 1
v 6 4 -1
v 6 4 -2
v 5 0 2
v 5 0 1
v 5 0 -1
v 5 0 -2
v 5 1 2
v 5 1 1
v 5 1 -1
v 5 1 -2
v 5 3 2
v 5 3 1
v 5 3 -1
v 5 3 -2
v 5 4 2
v 5 4 1
v 5 4 -1
v 5 4 -2
v 7 0 2
v 7 0 -2
v 7 4 2
v 7 4 -2
v -4 1 2
v -4 2 2
v -4 3 2
v -3 1 2
v -3 2 2
v -3 3 2
v -2 0 2
v -2 1 2
v -2 3 2
v -2 4 2
v -1 2 2
v -1 3 2
v 3 0 2
v 3 1 2
v 5 0 2
v 5 1 2
v 5 3 2
v 5 4 2
v 6 0 2
v 6 1 2
v 6 2 2
v 6 3 2
v 6 4 2
v 7 0 2
v 7 4 2
v -5 1 1
v -5 3 1
v -4 0 1
v -4 1 1
v -4 2 1
v -4 3 1
v -4 4 1
v -3 0 1
v -3 1 1
v -3 3 1
v -3 4 1
v -2 0 1
v -2 1 1
v -2 3 1
v -2 4 1
v 5 0 1
v 5 1 1
v 5 3 1
v 5 4 1
v 6 0 1
v 6 1 1
v 6 3 1
v 6 4 1
v -5 1 -1
v -5 3 -1
v -4 0 -1
v -4 1 -1
v -4 3 -1
v -4 4 -1
v -3 0 -1
v -3 1 -1
v -3 3 -1
v -3 4 -1
v -2 0 -1
v -2 1 -1
v -2 3 -1
v -2 4 -1
v 5 0 -1
v 5 1 -1
v 5 3 -1
v 5 4 -1
v 6 0 -1
v 6 1 -1
v 6 3 -1
v 6 4 -1
v -4 1 -2
v -4 3 -2
v -3 1 -2
v -3 3 -2
v -2 0 -2
v -2 1 -2
v -2 3 -2
v -2 4 -2
v 0 1 -2
v 0 2 -2
v 2 3 -2
v 2 4 -2
v 5 0 -2
v 5 1 -2
v 5 2 -2
v 5 3 -2
v 5 4 -2
v 6 0 -2
v 6 1 -2
v 6 3 -2
v 6 4 -2
v 7 0 -2
v 7 4 -2
v -2 0 2
v 3 0 2
v 5 0 2
v 6 0 2
v 7 0 2
v -4 0 1
v -3 0 1
v -2 0 1
v 3 0 1
v 5 0 1
v 6 0 1
v -4 0 -1
v -3 0 -1
v -2 0 -1
v 5 0 -1
v 6 0 -1
v -2 0 -2
v 5 0 -2
v 6 0 -2
v 7 0 -2
v -4 1 2
v -3 1 2
v -2 1 2
v 5 1 2
v 6 1 2
v -5 1 1
v -4 1 1
v -3 1 1
v -2 1 1
v 5 1 1
v 6 1 1
v -5 1 -1
v -4 1 -1
v -3 1 -1
v -2 1 -1
v 5 1 -1
v 6 1 -1
v -4 1 -2
v -3 1 -2
v -2 1 -2
v 5 1 -2
v 6 1 -2
v -4 3 2
v -3 3 2
v -2 3 2
v 5 3 2
v 6 3 2
v -5 3 1
v -4 3 1
v -3 3 1
v -2 3 1
v 5 3 1
v 6 3 1
v -4 3 -0
v -5 3 -1
v -4 3 -1
v -3 3 -1
v -2 3 -1
v 5 3 -1
v 6 3 -1
v -4 3 -2
v -3 3 -2
v -2 3 -2
v 5 3 -2
v 6 3 -2
v -2 4 2
v 5 4 2
v 6 4 2
v 7 4 2
v -4 4 1
v -3 4 1
v -2 4 1
v 0 4 1
v 5 4 1
v 6 4 1
v -4 4 -0
v -3 4 -0
v 0 4 -0
v 5 4 -0
v -4 4 -1
v -3 4 -1
v -2 4 -1
v 2 4 -1
v 5 4 -1
v 6 4 -1
v -2 4 -2
v 2 4 -2
v 5 4 -2
v 6 4 -2
v 7 4 -2

# faces
f 3/2/1 2/2/1 1/2/1
f 4/2/1 2/2/1 3/2/1
f 8/4/1 6/4/1 5/4/1
f 9/4/1 6/4/1 8/4/1
f 11/4/1 8/4/1 7/4/1
f 12/4/1 8/4/1 11/4/1
f 13/2/1 12/2/1 11/2/1
f 14/2/1 12/2/1 13/2/1
f 16/4/1 10/4/1 9/4/1
f 17/4/1 10/4/1 16/4/1
f 18/2/1 15/2/1 14/2/1
f 19/4/1 16/4/1 15/4/1
f 19/2/1 15/2/1 18/2/1
f 20/4/1 16/4/1 19/4/1
f 25/3/1 22/3/1 21/3/1
f 26/3/1 22/3/1 25/3/1
f 27/3/1 24/3/1 23/3/1
f 28/3/1 24/3/1 27/3/1
f 33/3/1 30/3/1 29/3/1
f 34/3/1 30/3/1 33/3/1
f 35/3/1 32/3/1 31/3/1
f 36/3/1 32/3/1 35/3/1
f 41/1/1 38/1/1 37/1/1
f 42/1/1 38/1/1 41/1/1
f 43/1/1 40/1/1 39/1/1
f 44/1/1 40/1/1 43/1/1
f 49/1/1 46/1/1 45/1/1
f 50/1/1 46/1/1 49/1/1
f 51/1/1 48/1/1 47/1/1
f 52/1/1 48/1/1 51/1/1
f 53/1/2 54/1/2 57/1/2
f 57/1/2 54/1/2 58/1/2
f 55/3/2 56/3/2 59/3/2
f 59/3/2 56/3/2 60/3/2
f 61/3/2 62/3/2 65/3/2
f 65/3/2 62/3/2 66/3/2
f 63/1/2 64/1/2 67/1/2
f 67/1/2 64/1/2 68/1/2
f 69/1/2 70/1/2 71/1/2
f 71/1/2 70/1/2 72/1/2
f 76/4/3 74/4/3 73/4/3
f 77/2/3 75/2/3 74/2/3
f 77/4/3 74/4/3 76/4/3
f 78/2/3 75/2/3 77/2/3
f 80/3/3 77/3/3 76/3/3
f 80/3/3 78/3/3 77/3/3
f 81/3/3 78/3/3 80/3/3
f 83/3/3 81/3/3 80/3/3
f 83/3/3 82/3/3 81/3/3
f 83/3/3 80/3/3 79/3/3
f 84/3/3 82/3/3 83/3/3
f 85/3/3 83/3/3 79/3/3
f 86/3/3 83/3/3 85/3/3
f 87/1/3 86/1/3 85/1/3
f 88/3/3 83/3/3 86/3/3
f 88/1/3 86/1/3 87/1/3
f 89/3/3 82/3/3 84/3/3
f 89/1/3 84/1/3 83/1/3
f 90/3/3 82/3/3 89/3/3
f 92/3/3 83/3/3 88/3/3
f 93/1/3 89/1/3 83/1/3
f 93/3/3 83/3/3 92/3/3
f 94/1/3 89/1/3 93/1/3
f 96/1/3 92/1/3 91/1/3
f 96/1/3 95/1/3 94/1/3
f 96/1/3 94/1/3 93/1/3
f 96/1/3 93/1/3 92/1/3
f 97/1/3 95/1/3 96/1/3
f 101/2/3 99/2/3 98/2/3
f 102/2/3 99/2/3 101/2/3
f 103/2/3 99/2/3 102/2/3
f 105/4/3 101/4/3 100/4/3
f 106/4/3 101/4/3 105/4/3
f 107/2/3 104/2/3 103/2/3
f 108/2/3 104/2/3 107/2/3
f 109/3/3 106/3/3 105/3/3
f 110/3/3 106/3/3 109/3/3
f 111/3/3 108/3/3 107/3/3
f 112/3/3 108/3/3 111/3/3
f 117/1/3 114/1/3 113/1/3
f 118/1/3 114/1/3 117/1/3
f 119/1/3 116/1/3 115/1/3
f 120/1/3 116/1/3 119/1/3
f 121/2/4 122/2/4 124/2/4
f 124/2/4 122/2/4 125/2/4
f 123/4/4 124/4/4 127/4/4
f 127/4/4 124/4/4 128/4/4
f 125/4/4 126/4/4 129/4/4
f 129/4/4 126/4/4 130/4/4
f 127/3/4 128/3/4 131/3/4
f 131/3/4 128/3/4 132/3/4
f 129/3/4 130/3/4 133/3/4
f 133/3/4 130/3/4 134/3/4
f 135/1/4 136/1/4 139/1/4
f 139/1/4 136/1/4 140/1/4
f 137/1/4 138/1/4 141/1/4
f 141/1/4 138/1/4 142/1/4
f 143/4/4 144/4/4 145/4/4
f 145/4/4 144/4/4 146/4/4
f 145/3/4 146/3/4 148/3/4
f 148/3/4 146/3/4 149/3/4
f 148/3/4 149/3/4 151/3/4
f 149/3/4 150/3/4 151/3/4
f 147/3/4 148/3/4 151/3/4
f 151/3/4 150/3/4 152/3/4
f 152/3/4 150/3/4 153/3/4
f 153/3/4 150/3/4 154/3/4
f 147/3/4 151/3/4 155/3/4
f 151/1/4 152/1/4 156/1/4
f 155/3/4 151/3/4 156/3/4
f 152/3/4 153/3/4 157/3/4
f 156/1/4 152/1/4 157/1/4
f 153/1/4 154/1/4 158/1/4
f 157/3/4 153/3/4 158/3/4
f 158/1/4 154/1/4 159/1/4
f 156/1/4 157/1/4 161/1/4
f 157/1/4 158/1/4 161/1/4
f 161/1/4 158/1/4 162/1/4
f 160/1/4 161/1/4 164/1/4
f 162/1/4 163/1/4 164/1/4
f 161/1/4 162/1/4 164/1/4
f 164/1/4 163/1/4 165/1/4
f 173/3/5 167/3/5 166/3/5
f 174/1/5 168/1/5 167/1/5
f 174/3/5 167/3/5 173/3/5
f 175/1/5 168/1/5 174/1/5
f 176/1/5 170/1/5 169/1/5
f 177/4/5 172/4/5 171/4/5
f 178/3/5 173/3/5 172/3/5
f 178/4/5 172/4/5 177/4/5
f 178/3/5 175/3/5 174/3/5
f 178/3/5 174/3/5 173/3/5
f 179/3/5 175/3/5 178/3/5
f 180/1/5 176/1/5 175/1/5
f 180/3/5 175/3/5 179/3/5
f 181/1/5 170/1/5 176/1/5
f 181/1/5 176/1/5 180/1/5
f 182/3/5 180/3/5 179/3/5
f 183/3/5 180/3/5 182/3/5
f 184/1/5 170/1/5 181/1/5
f 185/1/5 170/1/5 184/1/5
f 192/4/5 187/4/5 186/4/5
f 193/3/5 188/3/5 187/3/5
f 193/4/5 187/4/5 192/4/5
f 194/3/5 188/3/5 193/3/5
f 195/3/5 190/3/5 189/3/5
f 196/3/5 190/3/5 195/3/5
f 197/2/5 192/2/5 191/2/5
f 198/2/5 192/2/5 197/2/5
f 203/4/5 199/4/5 198/4/5
f 204/3/5 200/3/5 199/3/5
f 204/4/5 199/4/5 203/4/5
f 205/3/5 200/3/5 204/3/5
f 206/1/5 202/1/5 201/1/5
f 207/1/5 202/1/5 206/1/5
f 208/2/6 209/2/6 214/2/6
f 209/3/6 210/3/6 215/3/6
f 214/2/6 209/2/6 215/2/6
f 215/3/6 210/3/6 216/3/6
f 211/1/6 212/1/6 217/1/6
f 217/1/6 212/1/6 218/1/6
f 213/2/6 214/2/6 219/2/6
f 213/2/6 219/2/6 220/2/6
f 220/2/6 219/2/6 221/2/6
f 221/4/6 222/4/6 226/4/6
f 222/3/6 223/3/6 227/3/6
f 226/4/6 222/4/6 227/4/6
f 227/3/6 223/3/6 228/3/6
f 224/1/6 225/1/6 229/1/6
f 229/1/6 225/1/6 230/1/6
f 231/3/6 232/3/6 237/3/6
f 237/3/6 232/3/6 238/3/6
f 238/3/6 232/3/6 239/3/6
f 233/1/6 234/1/6 240/1/6
f 235/2/6 236/2/6 241/2/6
f 236/3/6 237/3/6 242/3/6
f 241/2/6 236/2/6 242/2/6
f 237/3/6 238/3/6 242/3/6
f 239/1/6 240/1/6 243/1/6
f 242/3/6 238/3/6 243/3/6
f 238/1/6 239/1/6 243/1/6
f 243/1/6 240/1/6 244/1/6
f 241/4/6 242/4/6 245/4/6
f 242/3/6 243/3/6 246/3/6
f 245/4/6 242/4/6 246/4/6
f 243/3/6 244/3/6 246/3/6
f 246/3/6 244/3/6 247/3/6
f 247/3/6 244/3/6 248/3/6
f 244/1/6 240/1/6 249/1/6
f 248/3/6 244/3/6 249/3/6
f 240/1/6 234/1/6 250/1/6
f 249/1/6 240/1/6 250/1/6
f 247/3/6 248/3/6 251/3/6
f 248/1/6 249/1/6 252/1/6
f 251/3/6 248/3/6 252/3/6
f 252/1/6 249/1/6 253/1/6
f 250/1/6 234/1/6 254/1/6
f 254/1/6 234/1/6 255/1/6
